<svg width="60" height="41" fill="none" xmlns="http://www.w3.org/2000/svg"><rect x=".5" y=".5" width="59" height="40" rx="2.5" fill="#6CAC3D" stroke="#6CAC3D"/><path d="M32.388 12.823a4.776 4.776 0 013.782 3.775l-3.782-3.775zm0-3.823a8.624 8.624 0 015.138 2.463A8.595 8.595 0 0140 16.588L32.388 9zm6.654 15.214v2.867a1.907 1.907 0 01-1.3 1.818 1.928 1.928 0 01-.787.093 18.972 18.972 0 01-8.263-2.934 18.655 18.655 0 01-5.745-5.733 18.89 18.89 0 01-2.94-8.286 1.906 1.906 0 011.134-1.92 1.9 1.9 0 01.772-.163h2.873a1.917 1.917 0 011.915 1.643c.12.918.346 1.819.67 2.686a1.907 1.907 0 01-.431 2.016l-1.216 1.214a15.306 15.306 0 005.745 5.734l1.216-1.214a1.916 1.916 0 012.02-.43 12.29 12.29 0 002.69.669 1.916 1.916 0 011.647 1.94z" stroke="#fff" stroke-linecap="round" stroke-linejoin="round"/></svg>