<svg width="15" height="17" fill="none" xmlns="http://www.w3.org/2000/svg"><path d="M14.5 9.5a7 7 0 11-14 0 7 7 0 0114 0z" stroke="#CBCBCB"/><path d="M7.924 12.098c.3 0 .579-.062.834-.185s.465-.292.629-.506a1.41 1.41 0 00.28-.745h1.203c-.023.438-.17.845-.444 1.224a3.034 3.034 0 01-1.06.909 3.075 3.075 0 01-1.442.342c-.556 0-1.042-.098-1.456-.294a2.887 2.887 0 01-1.026-.807 3.604 3.604 0 01-.608-1.176 4.963 4.963 0 01-.198-1.415v-.287c0-.497.066-.966.198-1.408.137-.447.34-.84.608-1.183.274-.341.616-.61 1.026-.806.414-.196.9-.294 1.456-.294.579 0 1.084.118 1.517.355a2.61 2.61 0 011.019.957c.25.401.387.857.41 1.367H9.667a1.822 1.822 0 00-.26-.827 1.62 1.62 0 00-.601-.588 1.681 1.681 0 00-.882-.225c-.388 0-.713.077-.978.232-.26.15-.467.356-.622.616-.15.255-.26.54-.328.854a4.7 4.7 0 00-.096.95v.287c0 .324.032.643.096.957.064.315.171.6.321.855.155.255.363.46.622.615.265.15.593.226.985.226z" fill="#CBCBCB"/></svg>