<svg width="23" height="23" fill="none" xmlns="http://www.w3.org/2000/svg"><path d="M14.399 5.833a4.792 4.792 0 013.785 3.786L14.4 5.833zm0-3.833a8.625 8.625 0 017.619 7.61L14.399 2zm6.66 15.257v2.875a1.915 1.915 0 01-2.089 1.916 18.966 18.966 0 01-8.27-2.942 18.689 18.689 0 01-5.75-5.75 18.966 18.966 0 01-2.942-8.308 1.917 1.917 0 011.907-2.09H6.79a1.917 1.917 0 011.917 1.649c.12.92.346 1.823.67 2.693a1.917 1.917 0 01-.43 2.022l-1.218 1.217a15.333 15.333 0 005.75 5.75l1.217-1.217a1.916 1.916 0 012.022-.432c.87.325 1.773.55 2.693.671a1.916 1.916 0 011.648 1.946z" stroke="#6CAC3D" stroke-width="1.5" stroke-linecap="round" stroke-linejoin="round"/></svg>