<svg width="60" height="41" viewBox="0 0 60 41" fill="none" xmlns="http://www.w3.org/2000/svg">
<rect x="0.5" y="0.5" width="59" height="40" rx="2.5" fill="#6CAC3D" stroke="#6CAC3D"/>
<path d="M32.388 12.8226C33.3232 13.0047 34.1827 13.4612 34.8565 14.1337C35.5302 14.8062 35.9876 15.664 36.1701 16.5974L32.388 12.8226ZM32.388 9C34.331 9.21544 36.1429 10.0839 37.5261 11.4627C38.9093 12.8416 39.7817 14.6489 40 16.5879L32.388 9ZM39.0425 24.214V27.0809C39.0436 27.3471 38.989 27.6105 38.8821 27.8544C38.7753 28.0983 38.6186 28.3172 38.4221 28.4971C38.2256 28.677 37.9937 28.814 37.7411 28.8993C37.4885 28.9845 37.2208 29.0162 36.9552 28.9922C34.0089 28.6727 31.1787 27.6678 28.6921 26.0584C26.3787 24.5911 24.4173 22.6335 22.9472 20.3245C21.3291 17.8314 20.3221 14.9929 20.0078 12.039C19.9838 11.7747 20.0153 11.5084 20.1002 11.2569C20.185 11.0054 20.3214 10.7743 20.5007 10.5784C20.6799 10.3824 20.898 10.2258 21.1412 10.1186C21.3844 10.0114 21.6473 9.9559 21.9132 9.95565H24.7856C25.2503 9.95109 25.7008 10.1153 26.0531 10.4177C26.4054 10.7202 26.6355 11.1401 26.7006 11.5994C26.8218 12.5169 27.0467 13.4177 27.3708 14.2848C27.4996 14.6268 27.5275 14.9985 27.4511 15.3559C27.3748 15.7133 27.1974 16.0414 26.9399 16.3012L25.7239 17.5149C27.087 19.9074 29.0717 21.8883 31.4688 23.2488L32.6848 22.0351C32.9452 21.7782 33.2738 21.6011 33.6319 21.5249C33.99 21.4486 34.3624 21.4765 34.7051 21.6051C35.5738 21.9286 36.4764 22.153 37.3956 22.274C37.8608 22.3395 38.2855 22.5733 38.5892 22.931C38.8928 23.2887 39.0542 23.7453 39.0425 24.214Z" stroke="white" stroke-linecap="round" stroke-linejoin="round"/>
</svg>
