<svg width="15" height="17" viewBox="0 0 15 17" fill="none" xmlns="http://www.w3.org/2000/svg">
<path d="M14.5 9.5C14.5 13.366 11.366 16.5 7.5 16.5C3.63401 16.5 0.5 13.366 0.5 9.5C0.5 5.63401 3.63401 2.5 7.5 2.5C11.366 2.5 14.5 5.63401 14.5 9.5Z" stroke="#CBCBCB"/>
<path d="M7.92383 12.0977C8.22461 12.0977 8.5026 12.0361 8.75781 11.9131C9.01302 11.79 9.22266 11.6214 9.38672 11.4072C9.55078 11.1885 9.64421 10.9401 9.66699 10.6621H10.8701C10.8473 11.0996 10.6992 11.5075 10.4258 11.8857C10.1569 12.2594 9.80371 12.5625 9.36621 12.7949C8.92871 13.0228 8.44792 13.1367 7.92383 13.1367C7.36784 13.1367 6.88249 13.0387 6.46777 12.8428C6.05762 12.6468 5.71582 12.3779 5.44238 12.0361C5.1735 11.6943 4.9707 11.3024 4.83398 10.8604C4.70182 10.4137 4.63574 9.94206 4.63574 9.44531V9.1582C4.63574 8.66146 4.70182 8.19206 4.83398 7.75C4.9707 7.30339 5.1735 6.90918 5.44238 6.56738C5.71582 6.22559 6.05762 5.95671 6.46777 5.76074C6.88249 5.56478 7.36784 5.4668 7.92383 5.4668C8.5026 5.4668 9.00846 5.58529 9.44141 5.82227C9.87435 6.05469 10.2139 6.3737 10.46 6.7793C10.7106 7.18034 10.8473 7.63607 10.8701 8.14648H9.66699C9.64421 7.84115 9.55762 7.56543 9.40723 7.31934C9.26139 7.07324 9.06087 6.87728 8.80566 6.73145C8.55501 6.58105 8.26107 6.50586 7.92383 6.50586C7.53646 6.50586 7.21061 6.58333 6.94629 6.73828C6.68652 6.88867 6.47917 7.09375 6.32422 7.35352C6.17383 7.60872 6.06445 7.89355 5.99609 8.20801C5.93229 8.5179 5.90039 8.83464 5.90039 9.1582V9.44531C5.90039 9.76888 5.93229 10.0879 5.99609 10.4023C6.0599 10.7168 6.16699 11.0016 6.31738 11.2568C6.47233 11.512 6.67969 11.7171 6.93945 11.8721C7.20378 12.0225 7.5319 12.0977 7.92383 12.0977Z" fill="#CBCBCB"/>
</svg>
